<svg xmlns="http://www.w3.org/2000/svg" viewBox="225.0 302.0 58.0 103.0"><!-- Adapted from macrovector / Freepik, licensed source 42234. -->
<defs><clipPath id="c88"><path d="M166.180,295.810 C165.970,294.283 166.114,292.712 166.085,291.157 C166.085,291.157 160.637,291.893 140.980,291.824 C140.784,291.823 139.832,291.823 139.714,291.823 C119.866,291.899 114.375,291.157 114.375,291.157 C114.346,292.712 114.490,294.283 114.280,295.810 C113.365,302.465 110.495,334.875 109.752,343.157 C124.839,350.831 139.438,343.670 139.438,343.670 C139.438,343.670 139.988,329.599 140.230,325.528 C140.472,329.599 141.022,343.670 141.022,343.670 C141.022,343.670 155.621,350.831 170.708,343.157 C169.965,334.875 167.095,302.465 166.180,295.810" clip-rule="nonzero"/></clipPath><clipPath id="c230"><path d="M205.361,30.135 C205.523,24.336 204.401,17.792 197.755,16.706 C193.254,15.971 187.479,13.992 183.194,12.647 C182.138,12.327 180.517,11.371 178.521,10.498 C177.939,9.916 176.068,3.888 176.068,3.888 C176.484,5.592 169.999,7.962 168.835,8.378 C168.093,11.470 166.663,13.568 165.978,14.443 C165.755,14.461 165.536,14.472 165.318,14.481 C164.645,13.629 163.185,11.514 162.433,8.378 C161.269,7.962 154.784,5.592 155.199,3.888 C155.199,3.888 153.329,9.916 152.746,10.498 L152.777,10.527 C151.340,11.362 148.994,12.372 148.074,12.647 C143.789,13.992 138.014,15.971 133.513,16.706 C126.866,17.792 125.745,24.336 125.906,30.135 C125.960,32.089 125.907,36.577 125.772,41.706 C127.835,43.464 132.918,43.871 138.257,43.092 C138.387,47.071 138.559,51.136 138.830,58.924 C139.041,64.960 139.263,81.840 138.830,96.211 C138.830,96.211 152.449,97.883 164.753,97.883 C177.056,97.883 192.374,96.211 192.374,96.211 C191.942,81.840 191.972,64.803 192.246,58.769 C192.594,51.082 192.881,47.071 193.011,43.092 C198.261,44.753 203.194,43.209 205.495,41.706 C205.360,36.577 205.307,32.089 205.361,30.135" clip-rule="nonzero"/></clipPath><clipPath id="c291"><path d="M193.918,318.361 L193.918,297.432 L193.918,318.360 C196.713,318.360 205.526,318.280 205.526,308.055 C205.526,304.509 203.994,302.137 202.043,300.555 C203.994,302.137 205.526,304.509 205.526,308.055 C205.526,318.281 196.712,318.361 193.918,318.361" clip-rule="nonzero"/></clipPath><clipPath id="c292"><path d="M193.918,318.361 L193.918,297.432 L193.918,318.360 C196.713,318.360 205.526,318.280 205.526,308.055 C205.526,304.509 203.994,302.137 202.043,300.555 C203.994,302.137 205.526,304.509 205.526,308.055 C205.526,318.281 196.712,318.361 193.918,318.361" clip-rule="nonzero"/></clipPath><clipPath id="c293"><path d="M193.918,318.360 L193.918,297.432 C193.918,297.432 198.624,297.781 202.043,300.555 C203.994,302.137 205.526,304.509 205.526,308.055 C205.526,318.280 196.713,318.360 193.918,318.360" clip-rule="nonzero"/></clipPath><clipPath id="c294"><path d="M200.704,287.150 C203.244,285.620 205.526,283.042 205.526,278.714 C205.526,273.971 203.629,271.410 201.317,270.028 C203.630,271.410 205.526,273.971 205.526,278.714 C205.526,283.042 203.244,285.620 200.704,287.150" clip-rule="nonzero"/></clipPath><clipPath id="c295"><path d="M200.704,287.150 C203.244,285.620 205.526,283.042 205.526,278.714 C205.526,273.971 203.629,271.410 201.317,270.028 C203.630,271.410 205.526,273.971 205.526,278.714 C205.526,283.042 203.244,285.620 200.704,287.150" clip-rule="nonzero"/></clipPath><clipPath id="c296"><path d="M193.918,289.337 L193.918,268.408 C195.416,268.408 198.644,268.431 201.317,270.028 C203.629,271.410 205.526,273.971 205.526,278.714 C205.526,283.042 203.244,285.620 200.704,287.150 C197.515,289.070 193.918,289.337 193.918,289.337" clip-rule="nonzero"/></clipPath><clipPath id="c383"><path d="M237.428,282.172 C232.884,282.172 229.685,279.536 228.650,275.748 C229.685,279.536 232.884,282.172 237.427,282.172 C237.911,282.172 238.411,282.142 238.924,282.080 C241.914,281.721 244.740,279.981 246.850,277.628 C244.740,279.981 241.914,281.722 238.924,282.081 C238.411,282.142 237.911,282.172 237.428,282.172 M228.649,275.745 C228.647,275.738 228.645,275.730 228.643,275.723 C228.645,275.730 228.647,275.738 228.649,275.745 M228.637,275.698 L228.636,275.697 L228.637,275.698 M228.288,272.966 C228.288,272.936 228.288,272.907 228.288,272.878 L228.288,272.966" clip-rule="nonzero"/></clipPath><clipPath id="c384"><path d="M237.428,282.172 C232.884,282.172 229.685,279.536 228.650,275.748 C229.685,279.536 232.884,282.172 237.427,282.172 C237.911,282.172 238.411,282.142 238.924,282.080 C241.914,281.721 244.740,279.981 246.850,277.628 C244.740,279.981 241.914,281.722 238.924,282.081 C238.411,282.142 237.911,282.172 237.428,282.172 M228.649,275.745 C228.647,275.738 228.645,275.730 228.643,275.723 C228.645,275.730 228.647,275.738 228.649,275.745 M228.637,275.698 L228.636,275.697 L228.637,275.698 M228.288,272.966 C228.288,272.936 228.288,272.907 228.288,272.878 L228.288,272.966" clip-rule="nonzero"/></clipPath><clipPath id="c385"><path d="M237.427,282.172 C232.884,282.172 229.685,279.536 228.650,275.748 C228.650,275.747 228.650,275.746 228.649,275.745 C228.647,275.738 228.645,275.730 228.643,275.723 C228.641,275.714 228.639,275.706 228.637,275.698 L228.636,275.697 C228.464,275.052 228.354,274.375 228.311,273.672 C228.296,273.430 228.289,273.195 228.288,272.966 L228.288,272.878 C228.313,266.326 233.984,264.790 238.675,264.790 C242.180,264.790 250.484,265.426 250.484,269.100 C250.484,272.024 249.060,275.162 246.850,277.628 C244.740,279.981 241.914,281.721 238.924,282.080 C238.411,282.142 237.911,282.172 237.427,282.172" clip-rule="nonzero"/></clipPath><clipPath id="c386"><path d="M268.400,282.172 C267.916,282.172 267.416,282.142 266.903,282.081 C266.096,281.984 265.300,281.786 264.528,281.503 C265.300,281.786 266.095,281.983 266.902,282.080 C267.416,282.142 267.915,282.172 268.399,282.172 C273.735,282.172 277.217,278.536 277.516,273.671 C277.793,269.164 275.587,266.824 272.704,265.701 C275.587,266.823 277.794,269.164 277.516,273.672 C277.217,278.537 273.735,282.172 268.400,282.172" clip-rule="nonzero"/></clipPath><clipPath id="c387"><path d="M268.400,282.172 C267.916,282.172 267.416,282.142 266.903,282.081 C266.096,281.984 265.300,281.786 264.528,281.503 C265.300,281.786 266.095,281.983 266.902,282.080 C267.416,282.142 267.915,282.172 268.399,282.172 C273.735,282.172 277.217,278.536 277.516,273.671 C277.793,269.164 275.587,266.824 272.704,265.701 C275.587,266.823 277.794,269.164 277.516,273.672 C277.217,278.537 273.735,282.172 268.400,282.172" clip-rule="nonzero"/></clipPath><clipPath id="c388"><path d="M268.399,282.172 C267.915,282.172 267.416,282.142 266.902,282.080 C266.095,281.983 265.300,281.786 264.528,281.503 C259.441,279.638 255.344,274.061 255.344,269.100 C255.344,265.426 263.648,264.790 267.152,264.790 C268.985,264.790 270.968,265.025 272.704,265.701 C275.587,266.824 277.793,269.164 277.516,273.671 C277.217,278.536 273.735,282.172 268.399,282.172" clip-rule="nonzero"/></clipPath><clipPath id="c407"><path d="M304.365,251.543 C303.931,265.374 304.231,271.662 304.634,278.929 C305.824,300.355 310.345,393.146 310.372,396.415 C310.372,396.415 312.141,397.222 317.168,397.222 C322.195,397.222 324.161,396.415 324.161,396.415 C323.970,391.961 330.100,278.713 330.277,278.713 C330.277,278.713 336.621,391.961 336.430,396.415 C336.430,396.415 338.713,397.222 343.500,397.222 C348.288,397.222 350.219,396.415 350.219,396.415 C350.246,393.146 354.766,300.355 355.957,278.929 C356.360,271.662 356.660,265.374 356.226,251.543 C356.127,248.389 356.037,245.085 355.963,241.786 C355.963,241.786 350.411,242.560 330.277,242.560 C310.144,242.560 304.628,241.786 304.628,241.786 C304.554,245.085 304.464,248.389 304.365,251.543" clip-rule="nonzero"/></clipPath></defs><path d="M281.089,400.295 C281.089,400.295 278.821,358.099 279.242,351.047 L279.248,350.947 L279.204,350.856 C276.247,344.984 274.618,337.332 274.618,329.309 C274.618,321.165 279.535,307.117 279.535,307.117 L274.810,305.703 C274.810,305.703 270.608,329.469 253.454,329.469 C236.300,329.469 232.296,305.703 232.296,305.703 L227.570,307.117 C227.570,307.117 232.487,321.165 232.487,329.309 C232.487,337.332 230.859,344.984 227.901,350.856 L227.857,350.947 L227.862,351.047 C228.284,358.091 225.820,403.931 225.820,403.931 L281.089,400.295" fill="#4ab176" fill-rule="nonzero"/><path d="M259.689,353.744 C257.613,353.737 255.936,351.803 256.471,349.621 C256.635,348.954 257.027,348.377 257.537,347.936 C257.932,348.803 258.646,350.056 259.702,350.709 L259.851,350.750 C259.946,350.750 260.039,350.703 260.092,350.616 C260.174,350.483 260.133,350.308 260.000,350.226 C259.023,349.623 258.357,348.383 258.005,347.582 C258.222,347.454 258.450,347.342 258.695,347.268 C260.382,346.758 262.037,347.602 262.708,349.049 C262.151,350.887 261.094,352.504 259.689,353.744 M251.903,356.259 C249.998,356.069 248.244,355.333 246.786,354.222 C247.878,353.961 248.781,353.239 249.301,352.275 C250.197,352.391 250.884,352.455 250.941,352.460 C250.941,352.460 251.002,352.469 251.101,352.469 C251.347,352.469 251.812,352.415 252.159,352.060 C252.438,351.775 252.572,351.366 252.560,350.845 C252.556,350.690 252.525,350.555 252.481,350.430 C254.224,349.340 256.255,347.656 257.159,346.883 L257.159,346.925 L257.172,347.010 C257.179,347.033 257.228,347.177 257.302,347.372 C256.556,347.956 256.024,348.807 255.861,349.766 C255.485,351.982 257.001,353.919 259.051,354.265 C257.090,355.735 254.592,356.527 251.903,356.259 M243.073,348.677 C243.824,347.481 245.274,346.846 246.754,347.229 C247.195,347.344 247.600,347.554 247.949,347.831 L246.337,349.798 C246.115,349.819 245.904,349.840 245.718,349.862 C245.034,349.942 244.750,350.310 244.772,350.641 C244.803,351.108 245.106,351.405 245.752,351.604 C246.550,351.850 247.687,352.048 248.694,352.192 C248.159,353.049 247.251,353.636 246.194,353.736 C244.698,352.409 243.591,350.657 243.073,348.677 M252.175,349.953 C251.828,349.629 251.300,349.495 250.807,349.495 L250.805,349.495 L250.740,349.499 L250.263,346.688 L250.263,346.016 L257.159,345.665 L257.159,346.135 C256.645,346.581 254.175,348.700 252.175,349.953 M250.932,350.632 L250.835,350.062 L250.839,350.062 C250.956,350.062 251.357,350.078 251.655,350.265 C251.398,350.411 251.157,350.533 250.932,350.632 M248.363,348.222 C248.710,348.610 248.963,349.080 249.096,349.592 C248.482,349.630 247.783,349.677 247.126,349.729 L248.363,348.222 M249.701,346.735 L250.171,349.529 C250.020,349.538 249.849,349.547 249.659,349.558 C249.498,348.895 249.172,348.285 248.713,347.795 L249.700,346.590 L249.701,346.735 M245.975,350.686 C246.097,350.785 246.274,350.767 246.374,350.647 L246.625,350.340 C247.432,350.268 248.381,350.204 249.178,350.155 C249.223,350.689 249.145,351.195 248.962,351.656 C247.928,351.513 246.726,351.311 245.919,351.063 C245.357,350.889 245.345,350.717 245.337,350.610 C245.348,350.575 245.479,350.460 245.784,350.425 L245.898,350.412 C245.876,350.513 245.890,350.617 245.975,350.686 M251.993,350.858 C252.002,351.221 251.921,351.492 251.754,351.664 C251.552,351.871 251.258,351.902 251.101,351.902 L251.004,351.897 C250.989,351.896 250.373,351.838 249.542,351.733 C249.683,351.334 249.777,350.912 249.779,350.465 C249.779,350.348 249.756,350.236 249.746,350.121 C249.938,350.110 250.116,350.100 250.266,350.091 L250.409,350.939 C250.428,351.049 250.514,351.118 250.613,351.148 L250.830,351.270 L250.933,351.250 C251.246,351.129 251.599,350.949 251.971,350.737 L251.993,350.858 M253.994,335.945 C258.767,336.423 262.628,340.283 263.105,345.057 C263.217,346.171 263.137,347.249 262.913,348.275 C262.049,346.997 260.470,346.279 258.819,346.649 C258.453,346.731 258.107,346.869 257.787,347.050 L257.726,346.880 L257.726,346.264 L257.726,345.367 L257.726,344.375 L257.677,344.257 C257.718,343.818 257.561,342.964 256.670,342.865 C255.845,342.773 255.377,342.681 255.372,342.680 C255.216,342.648 255.070,342.749 255.039,342.902 C255.008,343.056 255.108,343.205 255.262,343.236 C255.281,343.240 255.755,343.333 256.608,343.428 C257.157,343.489 257.119,344.132 257.113,344.207 L257.162,344.367 L257.159,344.375 L257.159,345.097 L250.263,345.448 L250.263,344.091 C250.827,344.039 251.366,343.954 251.575,343.889 C251.725,343.843 251.808,343.685 251.763,343.535 C251.716,343.386 251.558,343.300 251.408,343.348 C251.152,343.426 250.650,343.493 250.164,343.532 L250.169,343.477 C250.169,343.320 250.042,343.194 249.886,343.194 L249.591,343.192 C248.956,343.186 248.537,343.185 248.517,343.750 C248.513,343.842 248.570,343.957 248.643,344.013 C248.758,344.101 249.055,344.135 249.420,344.135 C249.508,344.135 249.602,344.132 249.697,344.129 L249.699,345.697 L248.289,347.416 C247.683,346.929 246.941,346.608 246.129,346.558 C244.865,346.481 243.684,347.015 242.907,347.942 C242.859,347.680 242.818,347.416 242.791,347.148 C242.146,340.699 247.545,335.300 253.994,335.945 M251.787,334.817 C246.484,335.347 242.194,339.636 241.663,344.940 C240.947,352.104 246.944,358.102 254.109,357.387 C259.412,356.857 263.702,352.568 264.233,347.264 C264.949,340.100 258.951,334.102 251.787,334.817" fill="#26824b" fill-rule="nonzero"/></svg>